# xmcd
#
# Track frame offsets: 
#        150
#        14275
#        26211
#        36320
#        48158
#        59566
#        71935
#        85379
#        96704
#        109599
#        122541
#        135541
#        148170
#        161695
#        174726
#        188681
#        200221
#        215612
#        227732
#        240840
#        251592
#        262391
#
# Disc length: 3659 seconds
#
# Revision: 1
# Processed by: cddbd v1.5.2PL0 Copyright (c) Steve Scherf et al.
# Submitted via: ExactAudioCopy v1.3
#
DISCID=540e4916
DTITLE=Various Artist - Grand Ole Country
DYEAR=2010
DGENRE=Country
TTITLE0=Tennessee Ernie Ford - Mule Train
TTITLE1=Roy Rogers - Yellow Rose Of Texas
TTITLE2=Hank Williams - Honky Tonk Blues
TTITLE3=Burl Ives - On Top Of Old Smokey
TTITLE4=Jimmy Wakely - I'm Sending You Red Roses
TTITLE5=Ted Daffan's Texans - Born To Loose
TTITLE6=Ernest Tubb - Drivin' Nails In My Coffin
TTITLE7=Tex Ritter - High Noon (Do Not Foresake Me)
TTITLE8=Roy Rogers - I Can't Go On This Way
TTITLE9=Hank Snow - I'm Moving On
TTITLE10=Slim Whitman - Stairway To Heaven
TTITLE11=Rou Acuff - There's A Star Spangled Banner Waving Somewhere
TTITLE12=Tex Williams and His Western Caravan - You Can't Break My Heart
TTITLE13=Gene Autry - High Steppin' Mama
TTITLE14=Merle Travis - Divorce Me C.O.D.
TTITLE15=Hank Thompson - Don't Take It Out On Me
TTITLE16=Tex Ritter - I Dreamed Of A Hill-Billy Heaven
TTITLE17=Tennessee Ernie Ford - Smokey Mountain Boogie
TTITLE18=Hank Williams - I Can't Get You Off Of My Mind
TTITLE19=Porter Wagoner - The Flame Of Love
TTITLE20=Faron Young - If You Ain't Lovin' You Ain't Livin'
TTITLE21=Hank Williams - Your Cheatin' Heart
EXTD=YEAR: 2010
EXTT0=
EXTT1=
EXTT2=
EXTT3=
EXTT4=
EXTT5=
EXTT6=
EXTT7=
EXTT8=
EXTT9=
EXTT10=
EXTT11=
EXTT12=
EXTT13=
EXTT14=
EXTT15=
EXTT16=
EXTT17=
EXTT18=
EXTT19=
EXTT20=
EXTT21=
PLAYORDER=
